<?xml version="1.0" encoding="UTF-8"?>
<svg xmlns="http://www.w3.org/2000/svg" onmouseup="{ if(window.parent.document.onmouseup) window.parent.document.onmouseup(arguments[0]);}" xml:space="preserve" style="enable-background:new 0 0 36 36;" viewBox="0 0 36 36" y="0px" x="0px" id="S_ThumbUpOutline_18_N_2x" version="1.1" xmlns:xlink="http://www.w3.org/1999/xlink"><style type="text/css">
	.st0{fill:#457A7C;}
	.st1{fill:#6E6E6E;}
</style><path data-cppathid="10000" d="M29.8,12h-6.6c0.6-2,0.8-4,0.8-6.1C24,3.8,22.5,2,20.9,2c-1.8,0-3.2,1.4-3.3,3.2c-0.5,4.6-5.3,8.3-7.8,9.4  C9.7,14.2,9.4,14,9,14H3c-0.6,0-1,0.4-1,1v16c0,0.6,0.4,1,1,1h6c0.6,0,1-0.4,1-1v-1c4.7,0,12.4,0,14.4,0c1.7,0,3.3-0.9,4.1-2.4  l4-11.3c0.7-1.5,0.1-3.3-1.4-4C30.7,12.1,30.3,12,29.8,12z M30.7,15.4l-4,11.4c-0.3,0.7-1,1.2-1.7,1.2H10V16.6  c2.9-1.2,9.1-5.5,9.6-11.4C19.7,4.5,20.3,4,20.9,4s1.1,0.7,1.2,1.9c0.2,2.8-0.4,5.6-1.7,8.1h9.5c0.6,0,1,0.4,1,1  C30.8,15.2,30.8,15.3,30.7,15.4L30.7,15.4z" class="st0"/><path data-cppathid="10001" d="M25.5,30L25.5,30z" class="st1"/></svg>