<?xml version="1.0" encoding="UTF-8"?>
<svg xmlns="http://www.w3.org/2000/svg" onmouseup="{ if(window.parent.document.onmouseup) window.parent.document.onmouseup(arguments[0]);}" xml:space="preserve" style="enable-background:new 0 0 36 36;" viewBox="0 0 36 36" y="0px" x="0px" id="S_ThumbDownOutline_18_N_2x" version="1.1" xmlns:xlink="http://www.w3.org/1999/xlink"><style type="text/css">
	.st0{fill:#6E6E6E;}
	.st1{fill:#FF0000;}
</style><path data-cppathid="10000" d="M25.5,6L25.5,6z" class="st0"/><path data-cppathid="10001" d="M32.6,19.7l-4-11.3C27.8,6.9,26.2,6,24.4,6C22.4,6,10,6,10,6c0-0.6-0.4-1-1-1H3C2.4,5,2,5.4,2,6v16  c0,0.6,0.4,1,1,1h6c0.6,0,1-0.4,1-1v-0.5c2.5,1.2,7.2,4.8,7.6,9.3c0.1,1.8,1.5,3.1,3.3,3.2c1.6,0,3.1-1.8,3.2-3.9  c0-2.1-0.2-4.1-0.8-6.1l6.6,0c1.7,0,3-1.3,3-3C32.8,20.5,32.7,20.1,32.6,19.7z M29.8,22h-9.5c1.3,2.5,1.9,5.3,1.7,8.1  C22,31.3,21.5,32,20.9,32c-0.7,0-1.2-0.5-1.3-1.2c-0.5-5.9-6.8-10.2-9.6-11.4V8l15,0c0.8,0,1.5,0.5,1.7,1.2l4,11.4  c0.2,0.5,0,1.1-0.5,1.3C30.1,22,30,22,29.8,22z" class="st1"/></svg>